<?xml version="1.0" encoding="UTF-8"?>
<svg id="Layer_1" xmlns="http://www.w3.org/2000/svg" viewBox="0 0 3648.85 1107.38">
  <defs>
    <style>
      .cls-1 {
        fill: #8a7463;
      }
    </style>
  </defs>
  <path class="cls-1" d="M3641.26,1069.18c-136.5-116.47-273-232.96-409.53-349.45-68.24-58.24-136.5-116.49-204.76-174.72-32.12-27.4-63.54-55.99-96.8-82.02-25.11-19.65-54.14-33.47-86.68-30.33-55.5,5.36-93.87,51.99-134.97,84.39-22.32,17.6-47.53,32.16-76.84,31.36-35.68-.96-68.4-21.96-95.18-43.85-62.27-50.92-113.98-116.51-170.12-173.96-59.56-60.95-120.39-120.67-182.46-179.1-31.02-29.21-62.37-58.11-93.99-86.64-25.93-23.4-53.63-54.52-88.97-62.9-34.97-8.28-68.18,10.63-91.56,35.56-28.89,30.86-54.68,65.19-82.02,97.45-53.45,63.1-107.61,125.61-163.07,186.94-29.03,32.1-58.4,63.88-88.21,95.26-12.96,13.66-26.03,27.24-39.15,40.74-12.53,12.86-25.69,30.17-42.1,38.33-31.6,15.73-68.14-27.92-89.33-47.05-29.03-26.21-56.91-53.63-85.05-80.77-24.65-23.76-51.38-57.35-85.94-66.19-34.43-8.8-64.76,11.35-89.71,32.76-118.56,101.71-213.86,228.08-334.26,327.78-18.62,15.41-32.5,19.02-50.24.88-15.57-15.93-29.77-33.51-44.56-50.2-28.81-32.52-56.71-66.27-86.68-97.73-22.14-23.26-51.87-38.19-82.82-21.51-13.74,7.41-24.31,19.2-34.83,30.45-16.87,18.06-33.67,36.16-50.5,54.22-120.99,129.93-241.98,259.84-362.97,389.77-30.51,32.76-61.01,65.53-91.54,98.29-17.5,18.8,3.7,50.3,27.5,36.94,96.8-54.4,194.03-108.11,292.02-160.36,30.03-16.01,60.06-32.04,90.48-47.27,25.41-12.72,77.16-40.62,104-18.72,26.17,21.37,10.97,73.22,23.68,102.13,15.31,34.81,51.65,51.61,88.39,49.12,43.01-2.91,80.29-30.86,111.55-58.4,38.51-33.91,71.61-74.14,105.34-112.65,68.02-77.64,133.75-157.23,201.14-235.41,15.89-18.42,31.76-36.88,47.97-55.02,13.86-15.51,36.44-41.56,60.08-38.11,40.62,5.91,42.67,89.17,46.16,118.78,4.54,38.67,7.41,79.09,32.12,111.01,23.36,30.21,61.61,44.56,98.91,34.35,42-11.49,71.79-48.75,101.44-78,39.05-38.53,78.74-76.43,117.31-115.43,70.61-71.41,137.56-146.38,208.11-217.91,36.42-36.92,71.35-76.62,109.8-111.37,30.59-27.64,78.48-43.65,117.9-25.77,43.09,19.53,63.68,79.47,75.33,121.63,13.14,47.61,18.44,96.88,24.07,145.8,12.17,105.7,28.3,215.18,62.41,316.37,13.68,40.6,39.03,81.64,82.94,93.71,37.66,10.33,76.64-4.36,109.06-23.06,39.67-22.9,71.73-55.99,110.14-80.57,17.52-11.21,39.87-24.31,61.47-23.54,16.27.58,30.88,12.39,43.45,21.96,25.27,19.26,46.74,43.29,68.44,66.33,29.79,31.6,60.26,62.47,92.79,91.28,50.44,44.72,127.12,104.78,199.35,74.87,50.52-20.91,63.32-81.74,38.39-127.4-16.43-30.07-42.83-55.88-66.47-80.41-26.54-27.56-54.1-54.18-81.82-80.57-59.16-56.29-119.46-111.41-179.26-167.03,52.89.9,95.14-30.19,134.85-64.68,19.1-16.57,38.39-35.39,61.97-45.46,31.48-13.48,58.21,1.77,82.76,22,66.39,54.66,130.95,111.71,196.36,167.53,134.15,114.46,268.31,228.94,402.46,343.42,32.96,28.12,65.89,56.23,98.85,84.35,22.56,19.26,56.15-12.84,33.39-32.26ZM2854.63,870.35c25.43,26.21,100.48,89.35,59.06,129.15-16.87,16.21-43.57,12.13-63.72,5.64-45.84-14.74-83.16-49.96-117.62-82.06-50.6-47.15-93.63-103.75-149.01-145.52-32.18-24.25-64.44-35.56-104.28-22.24-41.16,13.78-74.18,41.76-107.53,68.46-29.85,23.9-70.51,56.87-111.17,55.74-50.48-1.41-64.28-63.38-74.57-102.19-27.06-102.01-42.2-205.14-54.9-309.72-5.83-48.07-13.08-96.5-29.61-142.22-14.95-41.4-36.7-87.5-74.35-112.91-33.15-22.38-76.47-26.13-114.38-15.45-44.17,12.41-73.92,41.6-105.1,73.48-69.04,70.61-139.33,140.03-206.36,212.59-71.11,76.98-146.58,149.09-220.51,223.28-24.65,24.73-63.06,63-98.69,33.39-30.23-25.11-28.81-76.29-33.1-111.73-4.86-40.32-10.14-85.98-37.42-118.2-29.27-34.57-74.63-32.16-109.78-7.97-39.11,26.9-68.94,70.47-99.56,106.21-31.88,37.22-63.44,74.69-95.12,112.07-32.46,38.27-65.09,76.43-98.25,114.1-33.57,38.15-66.53,77.96-105.72,110.54-25.39,21.11-76.96,58.34-108.86,27.26-11.65-11.35-10.95-27.98-11.97-43.03-1.31-19.55-2.73-39.49-10.55-57.71-33.91-78.93-131.31-39.17-186.52-10.95-82.52,42.18-163.96,86.52-245.05,131.46,86.2-92.55,172.43-185.13,258.63-277.7,29.45-31.62,58.92-63.26,88.37-94.9,14.74-15.81,29.47-31.62,44.19-47.45,9.58-10.28,26.64-36.62,41.62-38.41,14.54-1.75,31.74,24.53,39.67,33.47,14.2,16.03,28.42,32.06,42.61,48.09,27.18,30.67,53.01,67.6,85.05,93.29,26.4,21.17,60.79,19.34,87.88.2,33.15-23.42,62.59-54.6,91.62-82.84,53.13-51.65,103.33-106.2,155.14-159.14,26.48-27.04,53.45-53.65,81.42-79.15,12.51-11.41,24.93-24.17,39.51-32.94,21.63-12.98,35.92-5.68,53.35,10.16,55.38,50.26,106.12,105.5,164.48,152.45,24.49,19.69,53.82,36.28,86.24,27.26,32.62-9.06,56.09-38.93,78.62-62.21,57.21-59.14,112.81-119.84,167.27-181.51,55.1-62.41,109.08-125.81,162.51-189.63,20.39-24.35,52.29-77.96,90.64-60.69,16.95,7.63,31.04,22.96,44.68,35.21,15.31,13.74,30.55,27.56,45.72,41.46,123.6,113.18,241.94,231.73,356.26,354.25,17.26,18.52,35.9,37.69,56.13,54.98,116.25,112.87,240.21,217.99,353.05,334.3h0Z"/>
</svg>